# xmcd
#
# Track frame offsets: 
#        150
#        5267
#        20961
#        33600
#        58852
#        64326
#        82872
#        98134
#        113002
#        131353
#        145198
#        161378
#        181249
#        192454
#        202254
#
# Disc length: 2801 seconds
#
# Revision: 3
# Processed by: cddbd v1.5.2PL0 Copyright (c) Steve Scherf et al.
# Submitted via: ExactAudioCopy v1.0b3
#
DISCID=d00aef0f
DTITLE=本間勇輔 - 「古畑任三郎」オリジナル・サウンドトラックベスト
DYEAR=2005
DGENRE=Soundtrack
TTITLE0=主題 OPENING THEME
TTITLE1=都市 METROPOLIS
TTITLE2=アリバイ ALIBI
TTITLE3=歌いすぎた男 MURDER IN SCAT
TTITLE4=死亡推定時刻 PRESUMED TIME OF DEATH
TTITLE5=共犯 COMPLICITY
TTITLE6=推理 INFERENCE
TTITLE7=無罪 INNOCENCE
TTITLE8=時効 PRESCRIPTLE
TTITLE9=フランス式指電卓 FINGER CACULATOR FRENCH STYLE
TTITLE10=現場検証 INVESTIGATION
TTITLE11=I の戦慄 I'S SHUDDER
TTITLE12=動機 MOTIVE
TTITLE13=終結 CONCLUSION
TTITLE14=主題 FURUHATA'S THEME
EXTD=YEAR: 2005
EXTT0=
EXTT1=
EXTT2=
EXTT3=
EXTT4=
EXTT5=
EXTT6=
EXTT7=
EXTT8=
EXTT9=
EXTT10=
EXTT11=
EXTT12=
EXTT13=
EXTT14=
PLAYORDER=
